HIERARCHY
ROOT hips
{
  OFFSET 0 10.6860622 2.3727825e-15
  CHANNELS 6 Xposition Yposition Zposition Yrotation Xrotation Zrotation
  JOINT leftUpperLeg
  {
    OFFSET 0.6642549969 -0.9402397400000004 0
    CHANNELS 3 Yrotation Xrotation Zrotation
    JOINT leftLowerLeg
    {
      OFFSET 0 -3.997221335632195 0
      CHANNELS 3 Yrotation Xrotation Zrotation
      JOINT leftFoot
      {
        OFFSET -0.13777839790000004 -4.6145792000000005 -0.22186036399999998
        CHANNELS 3 Yrotation Xrotation Zrotation
        JOINT leftToes
        {
          OFFSET -0.03777410834999995 -0.9130806927000008 0.85230013
          CHANNELS 3 Yrotation Xrotation Zrotation
          End Site
          {
            OFFSET -0.03777410834999995 -0.9130806927000008 0.85230013
          }
        }
      }
    }
  }
  JOINT rightUpperLeg
  {
    OFFSET -0.6642778626 -0.9402397400000004 0
    CHANNELS 3 Yrotation Xrotation Zrotation
    JOINT rightLowerLeg
    {
      OFFSET 0 -3.997221452859387 0
      CHANNELS 3 Yrotation Xrotation Zrotation
      JOINT rightFoot
      {
        OFFSET 0.1377926176 -4.6145792000000005 -0.22185782299999995
        CHANNELS 3 Yrotation Xrotation Zrotation
        JOINT rightToes
        {
          OFFSET 0.037780746850000047 -0.9130806927000008 0.85230167
          CHANNELS 3 Yrotation Xrotation Zrotation
          End Site
          {
            OFFSET 0.037780746850000047 -0.9130806927000008 0.85230167
          }
        }
      }
    }
  }
  JOINT spine
  {
    OFFSET 0 0.13988381660000015 0
    CHANNELS 3 Yrotation Xrotation Zrotation
    JOINT chest
    {
      OFFSET 0 0.6191039003973773 0
      CHANNELS 3 Yrotation Xrotation Zrotation
      JOINT upperChest
      {
        OFFSET 0 0.9855186130586943 0
        CHANNELS 3 Yrotation Xrotation Zrotation
        JOINT leftShoulder
        {
          OFFSET 0.1807663869 1.5087829790000005 0
          CHANNELS 3 Yrotation Xrotation Zrotation
          JOINT leftUpperArm
          {
            OFFSET 0.5985063006419806 0 0
            CHANNELS 3 Yrotation Xrotation Zrotation
            JOINT leftLowerArm
            {
              OFFSET 2.2993332369501065 0 0
              CHANNELS 3 Yrotation Xrotation Zrotation
              JOINT leftHand
              {
                OFFSET 2.395047042602395 0 0
                CHANNELS 3 Yrotation Xrotation Zrotation
                JOINT leftIndexProximal
                {
                  OFFSET 0.5766295810000004 0.04556643899499946 0.17265095988184
                  CHANNELS 3 Yrotation Xrotation Zrotation
                  JOINT leftIndexIntermediate
                  {
                    OFFSET 0.2957229000000008 -0.019352197700001517 -0.007932640616999987
                    CHANNELS 3 Yrotation Xrotation Zrotation
                    JOINT leftIndexDistal
                    {
                      OFFSET 0.19008243099999922 -0.012484908149998475 -0.002786250786000012
                      CHANNELS 3 Yrotation Xrotation Zrotation
                      End Site
                      {
                        OFFSET 0.19008243099999922 -0.012484908149998475 -0.002786250786000012
                      }
                    }
                  }
                }
                JOINT leftMiddleProximal
                {
                  OFFSET 0.5834975091000001 0.0524350405149987 0.02204081888183999
                  CHANNELS 3 Yrotation Xrotation Zrotation
                  JOINT leftMiddleIntermediate
                  {
                    OFFSET 0.33880573540000003 -0.019871473270000717 -0.00000971183179999946
                    CHANNELS 3 Yrotation Xrotation Zrotation
                    JOINT leftMiddleDistal
                    {
                      OFFSET 0.20676022730000088 -0.012221336379999448 0.0001471936708000235
                      CHANNELS 3 Yrotation Xrotation Zrotation
                      End Site
                      {
                        OFFSET 0.20676022730000088 -0.012221336379999448 0.0001471936708000235
                      }
                    }
                  }
                }
                JOINT leftLittleProximal
                {
                  OFFSET 0.5344154683999995 -0.012880921405001189 -0.24414037221816004
                  CHANNELS 3 Yrotation Xrotation Zrotation
                  JOINT leftLittleIntermediate
                  {
                    OFFSET 0.21758961730000093 -0.011650919939999227 0.011893592810000034
                    CHANNELS 3 Yrotation Xrotation Zrotation
                    JOINT leftLittleDistal
                    {
                      OFFSET 0.1475273964999999 -0.008152365682999818 0.006001092492999946
                      CHANNELS 3 Yrotation Xrotation Zrotation
                      End Site
                      {
                        OFFSET 0.1475273964999999 -0.008152365682999818 0.006001092492999946
                      }
                    }
                  }
                }
                JOINT leftRingProximal
                {
                  OFFSET 0.5799399463000003 0.026911854694997794 -0.12150566991816003
                  CHANNELS 3 Yrotation Xrotation Zrotation
                  JOINT leftRingIntermediate
                  {
                    OFFSET 0.26167887460000006 -0.013480186499999602 0.010996293000000053
                    CHANNELS 3 Yrotation Xrotation Zrotation
                    JOINT leftRingDistal
                    {
                      OFFSET 0.17667108799999987 -0.008990287899999228 0.0055541023999999065
                      CHANNELS 3 Yrotation Xrotation Zrotation
                      End Site
                      {
                        OFFSET 0.17667108799999987 -0.008990287899999228 0.0055541023999999065
                      }
                    }
                  }
                }
                JOINT leftThumbProximal
                {
                  OFFSET 0.11018806699999972 -0.09448718900500053 0.17047963138184
                  CHANNELS 3 Yrotation Xrotation Zrotation
                  JOINT leftThumbIntermediate
                  {
                    OFFSET 0.31062601459999983 -0.08126270900000132 0.15443142000000007
                    CHANNELS 3 Yrotation Xrotation Zrotation
                    JOINT leftThumbDistal
                    {
                      OFFSET 0.21627175790000086 -0.08833193599999878 0.018771167799999988
                      CHANNELS 3 Yrotation Xrotation Zrotation
                      End Site
                      {
                        OFFSET 0.21627175790000086 -0.08833193599999878 0.018771167799999988
                      }
                    }
                  }
                }
              }
            }
          }
        }
        JOINT neck
        {
          OFFSET 0 1.5463305265074576 0
          CHANNELS 3 Yrotation Xrotation Zrotation
          JOINT head
          {
            OFFSET 0 0.8456443600000344 0
            CHANNELS 3 Yrotation Xrotation Zrotation
            JOINT leftEye
            {
              OFFSET 0.30408573140000006 0.5104519199999995 0.1276382305
              CHANNELS 3 Yrotation Xrotation Zrotation
              End Site
              {
                OFFSET 0.30408573140000006 0.5104519199999995 0.1276382305
              }
            }
            JOINT rightEye
            {
              OFFSET -0.30409491089999996 0.5104519199999995 0.1276379445
              CHANNELS 3 Yrotation Xrotation Zrotation
              End Site
              {
                OFFSET -0.30409491089999996 0.5104519199999995 0.1276379445
              }
            }
            JOINT jaw
            {
              OFFSET -3.155239131000001e-7 -0.11984121820000082 0.60178107
              CHANNELS 3 Yrotation Xrotation Zrotation
              End Site
              {
                OFFSET -3.155239131000001e-7 -0.11984121820000082 0.60178107
              }
            }
          }
        }
        JOINT rightShoulder
        {
          OFFSET -0.1807303465 1.5087829790000005 0
          CHANNELS 3 Yrotation Xrotation Zrotation
          JOINT rightUpperArm
          {
            OFFSET -0.5985063796536958 0 0
            CHANNELS 3 Yrotation Xrotation Zrotation
            JOINT rightLowerArm
            {
              OFFSET -2.2993322059002854 0 0
              CHANNELS 3 Yrotation Xrotation Zrotation
              JOINT rightHand
              {
                OFFSET -2.395045314457259 0 0
                CHANNELS 3 Yrotation Xrotation Zrotation
                JOINT rightIndexProximal
                {
                  OFFSET -0.5764487688300002 0.0441371204405987 0.17361932004999997
                  CHANNELS 3 Yrotation Xrotation Zrotation
                  JOINT rightIndexIntermediate
                  {
                    OFFSET -0.29573011380000047 -0.01934826376999843 -0.007698921482999974
                    CHANNELS 3 Yrotation Xrotation Zrotation
                    JOINT rightIndexDistal
                    {
                      OFFSET -0.19008373999999884 -0.012503266380000655 -0.0026365778999999897
                      CHANNELS 3 Yrotation Xrotation Zrotation
                      End Site
                      {
                        OFFSET -0.19008373999999884 -0.012503266380000655 -0.0026365778999999897
                      }
                    }
                  }
                }
                JOINT rightMiddleProximal
                {
                  OFFSET -0.5834852037300005 0.05211639405060153 0.02307162440000001
                  CHANNELS 3 Yrotation Xrotation Zrotation
                  JOINT rightMiddleIntermediate
                  {
                    OFFSET -0.33880114510000003 -0.019952774050000954 0.0002455003561999819
                    CHANNELS 3 Yrotation Xrotation Zrotation
                    JOINT rightMiddleDistal
                    {
                      OFFSET -0.20675694929999955 -0.012273788999999091 0.00030209124000002766
                      CHANNELS 3 Yrotation Xrotation Zrotation
                      End Site
                      {
                        OFFSET -0.20675694929999955 -0.012273788999999091 0.00030209124000002766
                      }
                    }
                  }
                }
                JOINT rightLittleProximal
                {
                  OFFSET -0.5346811737299992 -0.011214256288399227 -0.24363941305000003
                  CHANNELS 3 Yrotation Xrotation Zrotation
                  JOINT rightLittleIntermediate
                  {
                    OFFSET -0.21757715980000092 -0.011771559690000988 0.01201554387
                    CHANNELS 3 Yrotation Xrotation Zrotation
                    JOINT rightLittleDistal
                    {
                      OFFSET -0.1475201849000004 -0.00822055339600003 0.006082065407000015
                      CHANNELS 3 Yrotation Xrotation Zrotation
                      End Site
                      {
                        OFFSET -0.1475201849000004 -0.00822055339600003 0.006082065407000015
                      }
                    }
                  }
                }
                JOINT rightRingProximal
                {
                  OFFSET -0.5800810755299999 0.027657985680600072 -0.12066365025000003
                  CHANNELS 3 Yrotation Xrotation Zrotation
                  JOINT rightRingIntermediate
                  {
                    OFFSET -0.26166445029999974 -0.013623118409999302 0.011164098990000045
                    CHANNELS 3 Yrotation Xrotation Zrotation
                    JOINT rightRingDistal
                    {
                      OFFSET -0.17666387530000027 -0.009072900100000503 0.005668185599999959
                      CHANNELS 3 Yrotation Xrotation Zrotation
                      End Site
                      {
                        OFFSET -0.17666387530000027 -0.009072900100000503 0.005668185599999959
                      }
                    }
                  }
                }
                JOINT rightThumbProximal
                {
                  OFFSET -0.10997596379000074 -0.09577489355940072 0.16989765924999997
                  CHANNELS 3 Yrotation Xrotation Zrotation
                  JOINT rightThumbIntermediate
                  {
                    OFFSET -0.31036620999999986 -0.08229339117999834 0.15440884469999996
                    CHANNELS 3 Yrotation Xrotation Zrotation
                    JOINT rightThumbDistal
                    {
                      OFFSET -0.21631306399999906 -0.08825326400000111 0.018656797720000014
                      CHANNELS 3 Yrotation Xrotation Zrotation
                      End Site
                      {
                        OFFSET -0.21631306399999906 -0.08825326400000111 0.018656797720000014
                      }
                    }
                  }
                }
              }
            }
          }
        }
      }
    }
  }
}
MOTION
Frames: 5
Frame Time: 0.03333333333333333
-0.08303520089667402 -0.8972750850323666 0.5425987243854571 0 2.1765670938676505 0 17.82442650194603 -27.155623185791004 2.371885794620049 5.529102385496811 46.75858802690642 11.036311654634753 -1.640756018395925 -23.087618264323794 -16.12662900654194 0 0 0 -16.844543387138856 -26.78416925464474 -0.9182703078946133 -5.672715279819126 46.985615317637155 -11.391671889206023 -0.28944274660992925 -23.45638378746729 16.039162540630695 0 0 0 -0.2676613400080553 2.899297524938071 -0.9671150106226174 -1.0251838472217736 1.8974993264012179 -2.2502176745015534 0 0 0 -3.8924791463894652 7.991464056418207 3.705717127324354 -7.899394893345714 -12.02775153446225 -51.927665677010616 -70.54729772114662 -7.587682060402992 -33.020015531097386 7.040337454848129 1.1090152399317625 -8.301025963539415 0 0 0 0 0 0 0 0 0 0 0 0 0 0 0 0 0 0 0 0 0 0 0 0 0 0 0 0 0 0 0 0 0 0 0 0 0 0 0 0 0 0 0 0 0 -0.7078558124561367 4.137179016793546 14.821066148559124 8.460970281907574 -5.983520998432557 6.468921015451969 0 0 0 0 0 0 0 0 0 3.791097089033691 7.51745698201601 -4.056494667890665 7.943029056053882 -12.160454299577452 51.91035075043954 70.02720764194129 -7.301807116772612 32.81474638962257 -6.632505382119787 1.4542614736782464 9.556715797880585 0 0 0 0 0 0 0 0 0 0 0 0 0 0 0 0 0 0 0 0 0 0 0 0 0 0 0 0 0 0 0 0 0 0 0 0 0 0 0 0 0 0 0 0 0
-0.08303520089667402 -0.8972750850323666 0.5289340686764507 0 2.854639034367043 0 17.452229670705247 -27.929265761937014 2.085890331920657 5.529102385496811 46.75858802690642 11.036311654634753 -1.1230883010667776 -23.013074605363094 -16.31100445680919 0 0 0 -16.561868098521142 -27.576604633590676 -0.6442612109043685 -5.672715279819126 46.985615317637155 -11.391671889206023 -0.7071326413572125 -23.380342873843425 16.184336069514774 0 0 0 -0.2676613400080553 2.899297524938071 -0.9671150106226174 -1.0246500705177057 0.6016309265984007 -2.2270671734612675 0 0 0 -3.7289855535015746 8.50542243319627 3.5979912216464687 -7.899394893345714 -12.02775153446225 -51.927665677010616 -70.74780952697624 -7.709893464976226 -33.088098942265596 7.147129973386353 1.2891046184272137 -8.30528527616452 0 0 0 0 0 0 0 0 0 0 0 0 0 0 0 0 0 0 0 0 0 0 0 0 0 0 0 0 0 0 0 0 0 0 0 0 0 0 0 0 0 0 0 0 0 -0.6696639494629568 4.477491410860029 14.955783781765163 8.549807146952281 -5.755893828379978 6.5440327204735125 0 0 0 0 0 0 0 0 0 3.6207759054298934 8.01620926334689 -3.957700466281066 7.943029056053882 -12.160454299577452 51.91035075043954 70.22066247029252 -7.418773140239361 32.882722194972345 -6.7324105960448195 1.641172665589553 9.585537206343343 0 0 0 0 0 0 0 0 0 0 0 0 0 0 0 0 0 0 0 0 0 0 0 0 0 0 0 0 0 0 0 0 0 0 0 0 0 0 0 0 0 0 0 0 0
-0.08303520089667402 -0.8972750850323666 0.5152694129674444 0 3.532613964626012 0 17.08182258247635 -28.704314597411702 1.8036190380024795 5.529102385496811 46.75858802690642 11.036311654634753 -0.6060018356550243 -22.937007207375995 -16.494527048363658 0 0 0 -16.281493787092273 -28.370018638272906 -0.3727484856480011 -5.672715279819126 46.985615317637155 -11.391671889206023 -1.1243556709857039 -23.30334344439674 16.32881514787578 0 0 0 -0.2676613400080553 2.899297524938071 -0.9671150106226174 -1.0246406786906945 -0.6935705684178977 -2.203939745181401 0 0 0 -3.566259697999617 9.019636401291695 3.4916126276860635 -7.899394893345714 -12.02775153446225 -51.927665677010616 -70.94820236237577 -7.832334940196777 -33.1557741404746 7.25391629030208 1.469198835613045 -8.30920933871802 0 0 0 0 0 0 0 0 0 0 0 0 0 0 0 0 0 0 0 0 0 0 0 0 0 0 0 0 0 0 0 0 0 0 0 0 0 0 0 0 0 0 0 0 0 -0.6306879119493289 4.81738339361277 15.090662015641602 8.638864231545249 -5.528490301831001 6.6194339925509915 0 0 0 0 0 0 0 0 0 3.451123337647957 8.515203384300754 -3.86029015177922 7.943029056053882 -12.160454299577452 51.91035075043954 70.41401385670558 -7.535964036308061 32.95031553068515 -6.832229928095374 1.8281315470561414 9.614037017269947 0 0 0 0 0 0 0 0 0 0 0 0 0 0 0 0 0 0 0 0 0 0 0 0 0 0 0 0 0 0 0 0 0 0 0 0 0 0 0 0 0 0 0 0 0
-0.08303520089667402 -0.8972750850323666 0.5016047572584382 0 4.21044782832746 0 16.7131627326601 -29.48063036105379 1.525089329420135 5.529102385496811 46.75858802690642 11.036311654634753 -0.0895209025229064 -22.85941294782533 -16.6771700684096 0 0 0 -16.003399026906667 -29.16428974967084 -0.10371398070153862 -5.672715279819126 46.985615317637155 -11.391671889206023 -1.541100125202098 -23.225375877553674 16.4725924197533 0 0 0 -0.2676613400080553 2.899297524938071 -0.9671150106226174 -1.025153533198059 -1.9877820788090543 -2.1808187232173646 0 0 0 -3.4042868299542848 9.53407494373941 3.386572927700757 -7.899394893345714 -12.02775153446225 -51.927665677010616 -71.14854920275845 -7.955014143414697 -33.223041905828374 7.3606939933501625 1.649296469149286 -8.312793965756317 0 0 0 0 0 0 0 0 0 0 0 0 0 0 0 0 0 0 0 0 0 0 0 0 0 0 0 0 0 0 0 0 0 0 0 0 0 0 0 0 0 0 0 0 0 -0.5909294550716326 5.156847467397739 15.225709852022455 8.728146143851802 -5.301317722467572 6.695125288328438 0 0 0 0 0 0 0 0 0 3.2821236799105864 9.014415946875157 -3.764258320022963 7.943029056053882 -12.160454299577452 51.91035075043954 70.60725043319813 -7.653374446498542 33.017517601521604 -6.93196602173637 2.0151353177277183 9.642211840694488 0 0 0 0 0 0 0 0 0 0 0 0 0 0 0 0 0 0 0 0 0 0 0 0 0 0 0 0 0 0 0 0 0 0 0 0 0 0 0 0 0 0 0 0 0
-0.08303520089667402 -0.8972750850323666 0.4879401015494319 0 4.88809196773004 0 16.346193519971457 -30.258050149138374 1.2503250181292156 5.529102385496811 46.75858802690642 11.036311654634753 0.4263299139492228 -22.78032763854554 -16.858928184221746 0 0 0 -15.727555197379857 -29.95928079584612 0.16285404981666785 -5.672715279819126 46.985615317637155 -11.391671889206023 -1.9573508764773857 -23.146458440039847 16.615644252205627 0 0 0 -0.2676613400080553 2.899297524938071 -0.9671150106226174 -1.0261874957652013 -3.2806684024335664 -2.157684447236962 0 0 0 -3.243050851616863 10.048705182197063 3.2828676584645406 -7.899394893345714 -12.02775153446225 -51.927665677010616 -71.34877542505689 -8.077917189526394 -33.28988868072772 7.46746875219132 1.829396416624703 -8.316044599027947 0 0 0 0 0 0 0 0 0 0 0 0 0 0 0 0 0 0 0 0 0 0 0 0 0 0 0 0 0 0 0 0 0 0 0 0 0 0 0 0 0 0 0 0 0 -0.5503850929701941 5.495877739499975 15.360932204391242 8.81765292441065 -5.074373546419811 6.771104558063527 0 0 0 0 0 0 0 0 0 3.113763722758254 9.513816555792591 -3.6696002561463805 7.943029056053882 -12.160454299577452 51.91035075043954 70.80041184341906 -7.771010214177746 33.084340544717996 -7.031621483474885 2.2021855575758007 9.670065578545055 0 0 0 0 0 0 0 0 0 0 0 0 0 0 0 0 0 0 0 0 0 0 0 0 0 0 0 0 0 0 0 0 0 0 0 0 0 0 0 0 0 0 0 0 0
